<svg width="133" height="40" viewBox="0 0 133 40" fill="none" xmlns="http://www.w3.org/2000/svg">
<path d="M13.1922 16.4583H15.4839C15.536 14.8958 15.5881 13.4375 15.5881 12.1875C15.5881 3.4375 13.7652 0 8.45266 0C2.93183 0 0.535995 3.75 0.535995 19.7917C0.535995 36.1979 2.87975 40 8.40058 40C13.6089 40 15.6922 35.3646 15.6922 26.0938C15.6922 25.3646 15.6922 24.5833 15.6402 23.8021H13.3485H11.0568C11.1089 24.9479 11.1089 25.9896 11.1089 26.9792C11.1089 33.6458 10.3277 35.5729 8.45266 35.5729C6.42141 35.5729 5.32766 34.375 5.32766 19.6875C5.32766 5.57292 6.42141 4.42708 8.3485 4.42708C10.0672 4.42708 11.0047 5.46875 11.0047 12.0833C11.0047 13.2292 11.0047 14.6875 10.9006 16.4583H13.1922Z" fill="#CFD9DF"/>
<path d="M13.1922 16.4583H15.4839C15.536 14.8958 15.5881 13.4375 15.5881 12.1875C15.5881 3.4375 13.7652 0 8.45266 0C2.93183 0 0.535995 3.75 0.535995 19.7917C0.535995 36.1979 2.87975 40 8.40058 40C13.6089 40 15.6922 35.3646 15.6922 26.0938C15.6922 25.3646 15.6922 24.5833 15.6402 23.8021H13.3485H11.0568C11.1089 24.9479 11.1089 25.9896 11.1089 26.9792C11.1089 33.6458 10.3277 35.5729 8.45266 35.5729C6.42141 35.5729 5.32766 34.375 5.32766 19.6875C5.32766 5.57292 6.42141 4.42708 8.3485 4.42708C10.0672 4.42708 11.0047 5.46875 11.0047 12.0833C11.0047 13.2292 11.0047 14.6875 10.9006 16.4583H13.1922Z" fill="url(#paint0_radial_2_1684)"/>
<path d="M13.1922 16.4583H15.4839C15.536 14.8958 15.5881 13.4375 15.5881 12.1875C15.5881 3.4375 13.7652 0 8.45266 0C2.93183 0 0.535995 3.75 0.535995 19.7917C0.535995 36.1979 2.87975 40 8.40058 40C13.6089 40 15.6922 35.3646 15.6922 26.0938C15.6922 25.3646 15.6922 24.5833 15.6402 23.8021H13.3485H11.0568C11.1089 24.9479 11.1089 25.9896 11.1089 26.9792C11.1089 33.6458 10.3277 35.5729 8.45266 35.5729C6.42141 35.5729 5.32766 34.375 5.32766 19.6875C5.32766 5.57292 6.42141 4.42708 8.3485 4.42708C10.0672 4.42708 11.0047 5.46875 11.0047 12.0833C11.0047 13.2292 11.0047 14.6875 10.9006 16.4583H13.1922Z" fill="url(#paint1_radial_2_1684)"/>
<path d="M13.1922 16.4583H15.4839C15.536 14.8958 15.5881 13.4375 15.5881 12.1875C15.5881 3.4375 13.7652 0 8.45266 0C2.93183 0 0.535995 3.75 0.535995 19.7917C0.535995 36.1979 2.87975 40 8.40058 40C13.6089 40 15.6922 35.3646 15.6922 26.0938C15.6922 25.3646 15.6922 24.5833 15.6402 23.8021H13.3485H11.0568C11.1089 24.9479 11.1089 25.9896 11.1089 26.9792C11.1089 33.6458 10.3277 35.5729 8.45266 35.5729C6.42141 35.5729 5.32766 34.375 5.32766 19.6875C5.32766 5.57292 6.42141 4.42708 8.3485 4.42708C10.0672 4.42708 11.0047 5.46875 11.0047 12.0833C11.0047 13.2292 11.0047 14.6875 10.9006 16.4583H13.1922Z" fill="url(#paint2_radial_2_1684)"/>
<path d="M13.1922 16.4583H15.4839C15.536 14.8958 15.5881 13.4375 15.5881 12.1875C15.5881 3.4375 13.7652 0 8.45266 0C2.93183 0 0.535995 3.75 0.535995 19.7917C0.535995 36.1979 2.87975 40 8.40058 40C13.6089 40 15.6922 35.3646 15.6922 26.0938C15.6922 25.3646 15.6922 24.5833 15.6402 23.8021H13.3485H11.0568C11.1089 24.9479 11.1089 25.9896 11.1089 26.9792C11.1089 33.6458 10.3277 35.5729 8.45266 35.5729C6.42141 35.5729 5.32766 34.375 5.32766 19.6875C5.32766 5.57292 6.42141 4.42708 8.3485 4.42708C10.0672 4.42708 11.0047 5.46875 11.0047 12.0833C11.0047 13.2292 11.0047 14.6875 10.9006 16.4583H13.1922Z" fill="url(#paint3_radial_2_1684)"/>
<path d="M13.1922 16.4583H15.4839C15.536 14.8958 15.5881 13.4375 15.5881 12.1875C15.5881 3.4375 13.7652 0 8.45266 0C2.93183 0 0.535995 3.75 0.535995 19.7917C0.535995 36.1979 2.87975 40 8.40058 40C13.6089 40 15.6922 35.3646 15.6922 26.0938C15.6922 25.3646 15.6922 24.5833 15.6402 23.8021H13.3485H11.0568C11.1089 24.9479 11.1089 25.9896 11.1089 26.9792C11.1089 33.6458 10.3277 35.5729 8.45266 35.5729C6.42141 35.5729 5.32766 34.375 5.32766 19.6875C5.32766 5.57292 6.42141 4.42708 8.3485 4.42708C10.0672 4.42708 11.0047 5.46875 11.0047 12.0833C11.0047 13.2292 11.0047 14.6875 10.9006 16.4583H13.1922Z" fill="url(#paint4_radial_2_1684)"/>
<path d="M34.1879 19.3229C34.1879 3.48958 31.1671 0 26.0108 0C20.8546 0 17.99 3.48958 17.99 19.3229C17.99 35.2083 20.5942 40 26.0108 40C31.4275 40 34.1879 35.2083 34.1879 19.3229ZM26.0629 35.5729C23.9275 35.5729 22.8338 32.7083 22.8338 19.6354C22.8338 6.51042 23.9275 4.42708 26.0629 4.42708C28.1983 4.42708 29.2921 6.5625 29.2921 19.6354C29.2921 32.7083 28.2504 35.5729 26.0629 35.5729Z" fill="#CFD9DF"/>
<path d="M34.1879 19.3229C34.1879 3.48958 31.1671 0 26.0108 0C20.8546 0 17.99 3.48958 17.99 19.3229C17.99 35.2083 20.5942 40 26.0108 40C31.4275 40 34.1879 35.2083 34.1879 19.3229ZM26.0629 35.5729C23.9275 35.5729 22.8338 32.7083 22.8338 19.6354C22.8338 6.51042 23.9275 4.42708 26.0629 4.42708C28.1983 4.42708 29.2921 6.5625 29.2921 19.6354C29.2921 32.7083 28.2504 35.5729 26.0629 35.5729Z" fill="url(#paint5_radial_2_1684)"/>
<path d="M34.1879 19.3229C34.1879 3.48958 31.1671 0 26.0108 0C20.8546 0 17.99 3.48958 17.99 19.3229C17.99 35.2083 20.5942 40 26.0108 40C31.4275 40 34.1879 35.2083 34.1879 19.3229ZM26.0629 35.5729C23.9275 35.5729 22.8338 32.7083 22.8338 19.6354C22.8338 6.51042 23.9275 4.42708 26.0629 4.42708C28.1983 4.42708 29.2921 6.5625 29.2921 19.6354C29.2921 32.7083 28.2504 35.5729 26.0629 35.5729Z" fill="url(#paint6_radial_2_1684)"/>
<path d="M34.1879 19.3229C34.1879 3.48958 31.1671 0 26.0108 0C20.8546 0 17.99 3.48958 17.99 19.3229C17.99 35.2083 20.5942 40 26.0108 40C31.4275 40 34.1879 35.2083 34.1879 19.3229ZM26.0629 35.5729C23.9275 35.5729 22.8338 32.7083 22.8338 19.6354C22.8338 6.51042 23.9275 4.42708 26.0629 4.42708C28.1983 4.42708 29.2921 6.5625 29.2921 19.6354C29.2921 32.7083 28.2504 35.5729 26.0629 35.5729Z" fill="url(#paint7_radial_2_1684)"/>
<path d="M34.1879 19.3229C34.1879 3.48958 31.1671 0 26.0108 0C20.8546 0 17.99 3.48958 17.99 19.3229C17.99 35.2083 20.5942 40 26.0108 40C31.4275 40 34.1879 35.2083 34.1879 19.3229ZM26.0629 35.5729C23.9275 35.5729 22.8338 32.7083 22.8338 19.6354C22.8338 6.51042 23.9275 4.42708 26.0629 4.42708C28.1983 4.42708 29.2921 6.5625 29.2921 19.6354C29.2921 32.7083 28.2504 35.5729 26.0629 35.5729Z" fill="url(#paint8_radial_2_1684)"/>
<path d="M34.1879 19.3229C34.1879 3.48958 31.1671 0 26.0108 0C20.8546 0 17.99 3.48958 17.99 19.3229C17.99 35.2083 20.5942 40 26.0108 40C31.4275 40 34.1879 35.2083 34.1879 19.3229ZM26.0629 35.5729C23.9275 35.5729 22.8338 32.7083 22.8338 19.6354C22.8338 6.51042 23.9275 4.42708 26.0629 4.42708C28.1983 4.42708 29.2921 6.5625 29.2921 19.6354C29.2921 32.7083 28.2504 35.5729 26.0629 35.5729Z" fill="url(#paint9_radial_2_1684)"/>
<path d="M48.3871 0.46875C48.5434 4.53125 48.6996 13.4896 48.6996 19.2188C48.6996 23.6979 48.9601 27.7083 49.2205 32.0833H49.1163C48.6996 28.3333 48.2309 24.5313 47.5538 21.3542C45.7309 12.8125 43.3871 3.48958 42.9184 0.46875H37.0851C37.1371 5.15625 37.1371 11.7188 37.1371 20C37.1371 28.3333 37.0851 34.4792 37.0851 39.5312H41.1476C41.0955 36.7708 41.0955 29.7396 41.0434 19.1146C40.9913 15.3646 40.8871 10.6771 40.6267 5.3125H40.7309C41.1996 9.79167 41.6684 14.2708 42.5538 18.6458C44.4288 26.1458 46.5642 35.5729 47.3976 39.5312H52.4496C52.3976 34.5833 52.3976 28.6458 52.3976 19.9479C52.3976 11.6667 52.4496 3.64584 52.5017 0.46875H48.3871Z" fill="#CFD9DF"/>
<path d="M48.3871 0.46875C48.5434 4.53125 48.6996 13.4896 48.6996 19.2188C48.6996 23.6979 48.9601 27.7083 49.2205 32.0833H49.1163C48.6996 28.3333 48.2309 24.5313 47.5538 21.3542C45.7309 12.8125 43.3871 3.48958 42.9184 0.46875H37.0851C37.1371 5.15625 37.1371 11.7188 37.1371 20C37.1371 28.3333 37.0851 34.4792 37.0851 39.5312H41.1476C41.0955 36.7708 41.0955 29.7396 41.0434 19.1146C40.9913 15.3646 40.8871 10.6771 40.6267 5.3125H40.7309C41.1996 9.79167 41.6684 14.2708 42.5538 18.6458C44.4288 26.1458 46.5642 35.5729 47.3976 39.5312H52.4496C52.3976 34.5833 52.3976 28.6458 52.3976 19.9479C52.3976 11.6667 52.4496 3.64584 52.5017 0.46875H48.3871Z" fill="url(#paint10_radial_2_1684)"/>
<path d="M48.3871 0.46875C48.5434 4.53125 48.6996 13.4896 48.6996 19.2188C48.6996 23.6979 48.9601 27.7083 49.2205 32.0833H49.1163C48.6996 28.3333 48.2309 24.5313 47.5538 21.3542C45.7309 12.8125 43.3871 3.48958 42.9184 0.46875H37.0851C37.1371 5.15625 37.1371 11.7188 37.1371 20C37.1371 28.3333 37.0851 34.4792 37.0851 39.5312H41.1476C41.0955 36.7708 41.0955 29.7396 41.0434 19.1146C40.9913 15.3646 40.8871 10.6771 40.6267 5.3125H40.7309C41.1996 9.79167 41.6684 14.2708 42.5538 18.6458C44.4288 26.1458 46.5642 35.5729 47.3976 39.5312H52.4496C52.3976 34.5833 52.3976 28.6458 52.3976 19.9479C52.3976 11.6667 52.4496 3.64584 52.5017 0.46875H48.3871Z" fill="url(#paint11_radial_2_1684)"/>
<path d="M48.3871 0.46875C48.5434 4.53125 48.6996 13.4896 48.6996 19.2188C48.6996 23.6979 48.9601 27.7083 49.2205 32.0833H49.1163C48.6996 28.3333 48.2309 24.5313 47.5538 21.3542C45.7309 12.8125 43.3871 3.48958 42.9184 0.46875H37.0851C37.1371 5.15625 37.1371 11.7188 37.1371 20C37.1371 28.3333 37.0851 34.4792 37.0851 39.5312H41.1476C41.0955 36.7708 41.0955 29.7396 41.0434 19.1146C40.9913 15.3646 40.8871 10.6771 40.6267 5.3125H40.7309C41.1996 9.79167 41.6684 14.2708 42.5538 18.6458C44.4288 26.1458 46.5642 35.5729 47.3976 39.5312H52.4496C52.3976 34.5833 52.3976 28.6458 52.3976 19.9479C52.3976 11.6667 52.4496 3.64584 52.5017 0.46875H48.3871Z" fill="url(#paint12_radial_2_1684)"/>
<path d="M48.3871 0.46875C48.5434 4.53125 48.6996 13.4896 48.6996 19.2188C48.6996 23.6979 48.9601 27.7083 49.2205 32.0833H49.1163C48.6996 28.3333 48.2309 24.5313 47.5538 21.3542C45.7309 12.8125 43.3871 3.48958 42.9184 0.46875H37.0851C37.1371 5.15625 37.1371 11.7188 37.1371 20C37.1371 28.3333 37.0851 34.4792 37.0851 39.5312H41.1476C41.0955 36.7708 41.0955 29.7396 41.0434 19.1146C40.9913 15.3646 40.8871 10.6771 40.6267 5.3125H40.7309C41.1996 9.79167 41.6684 14.2708 42.5538 18.6458C44.4288 26.1458 46.5642 35.5729 47.3976 39.5312H52.4496C52.3976 34.5833 52.3976 28.6458 52.3976 19.9479C52.3976 11.6667 52.4496 3.64584 52.5017 0.46875H48.3871Z" fill="url(#paint13_radial_2_1684)"/>
<path d="M48.3871 0.46875C48.5434 4.53125 48.6996 13.4896 48.6996 19.2188C48.6996 23.6979 48.9601 27.7083 49.2205 32.0833H49.1163C48.6996 28.3333 48.2309 24.5313 47.5538 21.3542C45.7309 12.8125 43.3871 3.48958 42.9184 0.46875H37.0851C37.1371 5.15625 37.1371 11.7188 37.1371 20C37.1371 28.3333 37.0851 34.4792 37.0851 39.5312H41.1476C41.0955 36.7708 41.0955 29.7396 41.0434 19.1146C40.9913 15.3646 40.8871 10.6771 40.6267 5.3125H40.7309C41.1996 9.79167 41.6684 14.2708 42.5538 18.6458C44.4288 26.1458 46.5642 35.5729 47.3976 39.5312H52.4496C52.3976 34.5833 52.3976 28.6458 52.3976 19.9479C52.3976 11.6667 52.4496 3.64584 52.5017 0.46875H48.3871Z" fill="url(#paint14_radial_2_1684)"/>
<path d="M65.5478 0.46875C65.3395 4.375 64.1936 18.125 63.3082 27.9167C63.0478 30.9375 62.8395 33.5938 62.6832 35.625H62.4228C62.2665 33.5938 62.0061 30.9375 61.6936 27.8646C60.8082 18.125 59.8186 4.58334 59.6103 0.46875H54.2978C55.5478 8.48958 58.204 34.2708 58.829 39.5312C59.454 39.4792 60.5478 39.4271 62.4228 39.4271C63.829 39.4271 65.1311 39.4792 66.0165 39.5312C66.6936 34.3229 69.2457 10.0521 70.4957 0.46875H65.5478Z" fill="#CFD9DF"/>
<path d="M65.5478 0.46875C65.3395 4.375 64.1936 18.125 63.3082 27.9167C63.0478 30.9375 62.8395 33.5938 62.6832 35.625H62.4228C62.2665 33.5938 62.0061 30.9375 61.6936 27.8646C60.8082 18.125 59.8186 4.58334 59.6103 0.46875H54.2978C55.5478 8.48958 58.204 34.2708 58.829 39.5312C59.454 39.4792 60.5478 39.4271 62.4228 39.4271C63.829 39.4271 65.1311 39.4792 66.0165 39.5312C66.6936 34.3229 69.2457 10.0521 70.4957 0.46875H65.5478Z" fill="url(#paint15_radial_2_1684)"/>
<path d="M65.5478 0.46875C65.3395 4.375 64.1936 18.125 63.3082 27.9167C63.0478 30.9375 62.8395 33.5938 62.6832 35.625H62.4228C62.2665 33.5938 62.0061 30.9375 61.6936 27.8646C60.8082 18.125 59.8186 4.58334 59.6103 0.46875H54.2978C55.5478 8.48958 58.204 34.2708 58.829 39.5312C59.454 39.4792 60.5478 39.4271 62.4228 39.4271C63.829 39.4271 65.1311 39.4792 66.0165 39.5312C66.6936 34.3229 69.2457 10.0521 70.4957 0.46875H65.5478Z" fill="url(#paint16_radial_2_1684)"/>
<path d="M65.5478 0.46875C65.3395 4.375 64.1936 18.125 63.3082 27.9167C63.0478 30.9375 62.8395 33.5938 62.6832 35.625H62.4228C62.2665 33.5938 62.0061 30.9375 61.6936 27.8646C60.8082 18.125 59.8186 4.58334 59.6103 0.46875H54.2978C55.5478 8.48958 58.204 34.2708 58.829 39.5312C59.454 39.4792 60.5478 39.4271 62.4228 39.4271C63.829 39.4271 65.1311 39.4792 66.0165 39.5312C66.6936 34.3229 69.2457 10.0521 70.4957 0.46875H65.5478Z" fill="url(#paint17_radial_2_1684)"/>
<path d="M65.5478 0.46875C65.3395 4.375 64.1936 18.125 63.3082 27.9167C63.0478 30.9375 62.8395 33.5938 62.6832 35.625H62.4228C62.2665 33.5938 62.0061 30.9375 61.6936 27.8646C60.8082 18.125 59.8186 4.58334 59.6103 0.46875H54.2978C55.5478 8.48958 58.204 34.2708 58.829 39.5312C59.454 39.4792 60.5478 39.4271 62.4228 39.4271C63.829 39.4271 65.1311 39.4792 66.0165 39.5312C66.6936 34.3229 69.2457 10.0521 70.4957 0.46875H65.5478Z" fill="url(#paint18_radial_2_1684)"/>
<path d="M65.5478 0.46875C65.3395 4.375 64.1936 18.125 63.3082 27.9167C63.0478 30.9375 62.8395 33.5938 62.6832 35.625H62.4228C62.2665 33.5938 62.0061 30.9375 61.6936 27.8646C60.8082 18.125 59.8186 4.58334 59.6103 0.46875H54.2978C55.5478 8.48958 58.204 34.2708 58.829 39.5312C59.454 39.4792 60.5478 39.4271 62.4228 39.4271C63.829 39.4271 65.1311 39.4792 66.0165 39.5312C66.6936 34.3229 69.2457 10.0521 70.4957 0.46875H65.5478Z" fill="url(#paint19_radial_2_1684)"/>
<path d="M72.3491 0.46875C72.4012 4.89583 72.4012 11.7188 72.4012 20C72.4012 28.3333 72.4012 34.5833 72.3491 39.5312H84.9533C84.9012 38.9583 84.9012 38.0208 84.9012 37.3438C84.9012 36.5625 84.9012 35.625 84.9533 35.1042H77.1929V21.6667C79.9012 21.6667 82.4533 21.6667 84.6929 21.7708V17.4479C82.4533 17.5521 79.9012 17.5521 77.1929 17.5521V4.79167C79.4325 4.79167 82.1408 4.79167 84.9533 4.84375C84.9012 4.32292 84.9012 3.33333 84.9012 2.55208C84.9012 1.875 84.9012 0.9375 84.9533 0.46875H72.3491Z" fill="#CFD9DF"/>
<path d="M72.3491 0.46875C72.4012 4.89583 72.4012 11.7188 72.4012 20C72.4012 28.3333 72.4012 34.5833 72.3491 39.5312H84.9533C84.9012 38.9583 84.9012 38.0208 84.9012 37.3438C84.9012 36.5625 84.9012 35.625 84.9533 35.1042H77.1929V21.6667C79.9012 21.6667 82.4533 21.6667 84.6929 21.7708V17.4479C82.4533 17.5521 79.9012 17.5521 77.1929 17.5521V4.79167C79.4325 4.79167 82.1408 4.79167 84.9533 4.84375C84.9012 4.32292 84.9012 3.33333 84.9012 2.55208C84.9012 1.875 84.9012 0.9375 84.9533 0.46875H72.3491Z" fill="url(#paint20_radial_2_1684)"/>
<path d="M72.3491 0.46875C72.4012 4.89583 72.4012 11.7188 72.4012 20C72.4012 28.3333 72.4012 34.5833 72.3491 39.5312H84.9533C84.9012 38.9583 84.9012 38.0208 84.9012 37.3438C84.9012 36.5625 84.9012 35.625 84.9533 35.1042H77.1929V21.6667C79.9012 21.6667 82.4533 21.6667 84.6929 21.7708V17.4479C82.4533 17.5521 79.9012 17.5521 77.1929 17.5521V4.79167C79.4325 4.79167 82.1408 4.79167 84.9533 4.84375C84.9012 4.32292 84.9012 3.33333 84.9012 2.55208C84.9012 1.875 84.9012 0.9375 84.9533 0.46875H72.3491Z" fill="url(#paint21_radial_2_1684)"/>
<path d="M72.3491 0.46875C72.4012 4.89583 72.4012 11.7188 72.4012 20C72.4012 28.3333 72.4012 34.5833 72.3491 39.5312H84.9533C84.9012 38.9583 84.9012 38.0208 84.9012 37.3438C84.9012 36.5625 84.9012 35.625 84.9533 35.1042H77.1929V21.6667C79.9012 21.6667 82.4533 21.6667 84.6929 21.7708V17.4479C82.4533 17.5521 79.9012 17.5521 77.1929 17.5521V4.79167C79.4325 4.79167 82.1408 4.79167 84.9533 4.84375C84.9012 4.32292 84.9012 3.33333 84.9012 2.55208C84.9012 1.875 84.9012 0.9375 84.9533 0.46875H72.3491Z" fill="url(#paint22_radial_2_1684)"/>
<path d="M72.3491 0.46875C72.4012 4.89583 72.4012 11.7188 72.4012 20C72.4012 28.3333 72.4012 34.5833 72.3491 39.5312H84.9533C84.9012 38.9583 84.9012 38.0208 84.9012 37.3438C84.9012 36.5625 84.9012 35.625 84.9533 35.1042H77.1929V21.6667C79.9012 21.6667 82.4533 21.6667 84.6929 21.7708V17.4479C82.4533 17.5521 79.9012 17.5521 77.1929 17.5521V4.79167C79.4325 4.79167 82.1408 4.79167 84.9533 4.84375C84.9012 4.32292 84.9012 3.33333 84.9012 2.55208C84.9012 1.875 84.9012 0.9375 84.9533 0.46875H72.3491Z" fill="url(#paint23_radial_2_1684)"/>
<path d="M72.3491 0.46875C72.4012 4.89583 72.4012 11.7188 72.4012 20C72.4012 28.3333 72.4012 34.5833 72.3491 39.5312H84.9533C84.9012 38.9583 84.9012 38.0208 84.9012 37.3438C84.9012 36.5625 84.9012 35.625 84.9533 35.1042H77.1929V21.6667C79.9012 21.6667 82.4533 21.6667 84.6929 21.7708V17.4479C82.4533 17.5521 79.9012 17.5521 77.1929 17.5521V4.79167C79.4325 4.79167 82.1408 4.79167 84.9533 4.84375C84.9012 4.32292 84.9012 3.33333 84.9012 2.55208C84.9012 1.875 84.9012 0.9375 84.9533 0.46875H72.3491Z" fill="url(#paint24_radial_2_1684)"/>
<path d="M95.0058 21.0938C93.912 21.0417 93.0787 21.0417 92.5579 21.0417C92.5579 15.8854 92.5579 10.3125 92.5579 4.73958C93.3391 4.6875 94.2766 4.63542 94.6412 4.6875C96.985 4.63542 98.0787 5.67708 98.0787 12.9687C98.0787 18.4896 97.0891 21.0938 95.0058 21.0938ZM98.0787 23.4896C101.516 22.6563 102.714 19.3229 102.714 12.0313C102.714 2.86458 100.11 0.46875 95.4745 0.46875H87.9225C87.9225 6.09375 87.9745 11.7188 87.9745 20C87.9745 28.3333 87.9225 33.9062 87.9225 39.5312H92.8704C92.7141 36.1458 92.61 31.0938 92.61 25.2083C93.4433 25.1563 93.912 25.1562 94.7975 25.1562C96.6725 25.1562 97.037 26.5625 98.1308 37.4479C98.4433 39.0104 98.4954 39.5312 99.2245 39.5312H103.756C103.391 37.6562 102.975 34.0104 102.454 30.9375C101.672 25.625 100.683 24.2188 98.0787 23.6979V23.4896Z" fill="#CFD9DF"/>
<path d="M95.0058 21.0938C93.912 21.0417 93.0787 21.0417 92.5579 21.0417C92.5579 15.8854 92.5579 10.3125 92.5579 4.73958C93.3391 4.6875 94.2766 4.63542 94.6412 4.6875C96.985 4.63542 98.0787 5.67708 98.0787 12.9687C98.0787 18.4896 97.0891 21.0938 95.0058 21.0938ZM98.0787 23.4896C101.516 22.6563 102.714 19.3229 102.714 12.0313C102.714 2.86458 100.11 0.46875 95.4745 0.46875H87.9225C87.9225 6.09375 87.9745 11.7188 87.9745 20C87.9745 28.3333 87.9225 33.9062 87.9225 39.5312H92.8704C92.7141 36.1458 92.61 31.0938 92.61 25.2083C93.4433 25.1563 93.912 25.1562 94.7975 25.1562C96.6725 25.1562 97.037 26.5625 98.1308 37.4479C98.4433 39.0104 98.4954 39.5312 99.2245 39.5312H103.756C103.391 37.6562 102.975 34.0104 102.454 30.9375C101.672 25.625 100.683 24.2188 98.0787 23.6979V23.4896Z" fill="url(#paint25_radial_2_1684)"/>
<path d="M95.0058 21.0938C93.912 21.0417 93.0787 21.0417 92.5579 21.0417C92.5579 15.8854 92.5579 10.3125 92.5579 4.73958C93.3391 4.6875 94.2766 4.63542 94.6412 4.6875C96.985 4.63542 98.0787 5.67708 98.0787 12.9687C98.0787 18.4896 97.0891 21.0938 95.0058 21.0938ZM98.0787 23.4896C101.516 22.6563 102.714 19.3229 102.714 12.0313C102.714 2.86458 100.11 0.46875 95.4745 0.46875H87.9225C87.9225 6.09375 87.9745 11.7188 87.9745 20C87.9745 28.3333 87.9225 33.9062 87.9225 39.5312H92.8704C92.7141 36.1458 92.61 31.0938 92.61 25.2083C93.4433 25.1563 93.912 25.1562 94.7975 25.1562C96.6725 25.1562 97.037 26.5625 98.1308 37.4479C98.4433 39.0104 98.4954 39.5312 99.2245 39.5312H103.756C103.391 37.6562 102.975 34.0104 102.454 30.9375C101.672 25.625 100.683 24.2188 98.0787 23.6979V23.4896Z" fill="url(#paint26_radial_2_1684)"/>
<path d="M95.0058 21.0938C93.912 21.0417 93.0787 21.0417 92.5579 21.0417C92.5579 15.8854 92.5579 10.3125 92.5579 4.73958C93.3391 4.6875 94.2766 4.63542 94.6412 4.6875C96.985 4.63542 98.0787 5.67708 98.0787 12.9687C98.0787 18.4896 97.0891 21.0938 95.0058 21.0938ZM98.0787 23.4896C101.516 22.6563 102.714 19.3229 102.714 12.0313C102.714 2.86458 100.11 0.46875 95.4745 0.46875H87.9225C87.9225 6.09375 87.9745 11.7188 87.9745 20C87.9745 28.3333 87.9225 33.9062 87.9225 39.5312H92.8704C92.7141 36.1458 92.61 31.0938 92.61 25.2083C93.4433 25.1563 93.912 25.1562 94.7975 25.1562C96.6725 25.1562 97.037 26.5625 98.1308 37.4479C98.4433 39.0104 98.4954 39.5312 99.2245 39.5312H103.756C103.391 37.6562 102.975 34.0104 102.454 30.9375C101.672 25.625 100.683 24.2188 98.0787 23.6979V23.4896Z" fill="url(#paint27_radial_2_1684)"/>
<path d="M95.0058 21.0938C93.912 21.0417 93.0787 21.0417 92.5579 21.0417C92.5579 15.8854 92.5579 10.3125 92.5579 4.73958C93.3391 4.6875 94.2766 4.63542 94.6412 4.6875C96.985 4.63542 98.0787 5.67708 98.0787 12.9687C98.0787 18.4896 97.0891 21.0938 95.0058 21.0938ZM98.0787 23.4896C101.516 22.6563 102.714 19.3229 102.714 12.0313C102.714 2.86458 100.11 0.46875 95.4745 0.46875H87.9225C87.9225 6.09375 87.9745 11.7188 87.9745 20C87.9745 28.3333 87.9225 33.9062 87.9225 39.5312H92.8704C92.7141 36.1458 92.61 31.0938 92.61 25.2083C93.4433 25.1563 93.912 25.1562 94.7975 25.1562C96.6725 25.1562 97.037 26.5625 98.1308 37.4479C98.4433 39.0104 98.4954 39.5312 99.2245 39.5312H103.756C103.391 37.6562 102.975 34.0104 102.454 30.9375C101.672 25.625 100.683 24.2188 98.0787 23.6979V23.4896Z" fill="url(#paint28_radial_2_1684)"/>
<path d="M95.0058 21.0938C93.912 21.0417 93.0787 21.0417 92.5579 21.0417C92.5579 15.8854 92.5579 10.3125 92.5579 4.73958C93.3391 4.6875 94.2766 4.63542 94.6412 4.6875C96.985 4.63542 98.0787 5.67708 98.0787 12.9687C98.0787 18.4896 97.0891 21.0938 95.0058 21.0938ZM98.0787 23.4896C101.516 22.6563 102.714 19.3229 102.714 12.0313C102.714 2.86458 100.11 0.46875 95.4745 0.46875H87.9225C87.9225 6.09375 87.9745 11.7188 87.9745 20C87.9745 28.3333 87.9225 33.9062 87.9225 39.5312H92.8704C92.7141 36.1458 92.61 31.0938 92.61 25.2083C93.4433 25.1563 93.912 25.1562 94.7975 25.1562C96.6725 25.1562 97.037 26.5625 98.1308 37.4479C98.4433 39.0104 98.4954 39.5312 99.2245 39.5312H103.756C103.391 37.6562 102.975 34.0104 102.454 30.9375C101.672 25.625 100.683 24.2188 98.0787 23.6979V23.4896Z" fill="url(#paint29_radial_2_1684)"/>
<path d="M103.971 0.46875V2.65625V4.89583C105.378 4.84375 106.784 4.84375 108.086 4.84375C108.086 15.7812 108.086 36.5625 107.93 39.5312C108.659 39.4792 109.649 39.4792 110.378 39.4792C111.107 39.4792 112.149 39.4792 112.826 39.5312C112.721 36.5104 112.721 15.7292 112.721 4.84375C113.971 4.84375 115.378 4.84375 116.784 4.89583V2.65625V0.46875H103.971Z" fill="#CFD9DF"/>
<path d="M103.971 0.46875V2.65625V4.89583C105.378 4.84375 106.784 4.84375 108.086 4.84375C108.086 15.7812 108.086 36.5625 107.93 39.5312C108.659 39.4792 109.649 39.4792 110.378 39.4792C111.107 39.4792 112.149 39.4792 112.826 39.5312C112.721 36.5104 112.721 15.7292 112.721 4.84375C113.971 4.84375 115.378 4.84375 116.784 4.89583V2.65625V0.46875H103.971Z" fill="url(#paint30_radial_2_1684)"/>
<path d="M103.971 0.46875V2.65625V4.89583C105.378 4.84375 106.784 4.84375 108.086 4.84375C108.086 15.7812 108.086 36.5625 107.93 39.5312C108.659 39.4792 109.649 39.4792 110.378 39.4792C111.107 39.4792 112.149 39.4792 112.826 39.5312C112.721 36.5104 112.721 15.7292 112.721 4.84375C113.971 4.84375 115.378 4.84375 116.784 4.89583V2.65625V0.46875H103.971Z" fill="url(#paint31_radial_2_1684)"/>
<path d="M103.971 0.46875V2.65625V4.89583C105.378 4.84375 106.784 4.84375 108.086 4.84375C108.086 15.7812 108.086 36.5625 107.93 39.5312C108.659 39.4792 109.649 39.4792 110.378 39.4792C111.107 39.4792 112.149 39.4792 112.826 39.5312C112.721 36.5104 112.721 15.7292 112.721 4.84375C113.971 4.84375 115.378 4.84375 116.784 4.89583V2.65625V0.46875H103.971Z" fill="url(#paint32_radial_2_1684)"/>
<path d="M103.971 0.46875V2.65625V4.89583C105.378 4.84375 106.784 4.84375 108.086 4.84375C108.086 15.7812 108.086 36.5625 107.93 39.5312C108.659 39.4792 109.649 39.4792 110.378 39.4792C111.107 39.4792 112.149 39.4792 112.826 39.5312C112.721 36.5104 112.721 15.7292 112.721 4.84375C113.971 4.84375 115.378 4.84375 116.784 4.89583V2.65625V0.46875H103.971Z" fill="url(#paint33_radial_2_1684)"/>
<path d="M103.971 0.46875V2.65625V4.89583C105.378 4.84375 106.784 4.84375 108.086 4.84375C108.086 15.7812 108.086 36.5625 107.93 39.5312C108.659 39.4792 109.649 39.4792 110.378 39.4792C111.107 39.4792 112.149 39.4792 112.826 39.5312C112.721 36.5104 112.721 15.7292 112.721 4.84375C113.971 4.84375 115.378 4.84375 116.784 4.89583V2.65625V0.46875H103.971Z" fill="url(#paint34_radial_2_1684)"/>
<path d="M128.184 0.46875C127.923 2.8125 126.83 10.9896 126.1 17.3438C125.84 19.0104 125.58 21.1458 125.423 22.8125H125.163C125.007 21.1458 124.746 19.0104 124.486 17.2917C123.652 10.9375 122.767 2.91667 122.559 0.46875H117.194C118.444 5.15625 121.777 22.1354 122.767 27.5521C122.767 33.75 122.715 37.7604 122.663 39.5312C123.34 39.4792 124.33 39.4792 125.111 39.4792C125.892 39.4792 126.83 39.4792 127.507 39.5312C127.455 37.7083 127.402 33.75 127.402 27.5C128.392 22.1875 131.621 6.14583 132.923 0.46875H128.184Z" fill="#CFD9DF"/>
<path d="M128.184 0.46875C127.923 2.8125 126.83 10.9896 126.1 17.3438C125.84 19.0104 125.58 21.1458 125.423 22.8125H125.163C125.007 21.1458 124.746 19.0104 124.486 17.2917C123.652 10.9375 122.767 2.91667 122.559 0.46875H117.194C118.444 5.15625 121.777 22.1354 122.767 27.5521C122.767 33.75 122.715 37.7604 122.663 39.5312C123.34 39.4792 124.33 39.4792 125.111 39.4792C125.892 39.4792 126.83 39.4792 127.507 39.5312C127.455 37.7083 127.402 33.75 127.402 27.5C128.392 22.1875 131.621 6.14583 132.923 0.46875H128.184Z" fill="url(#paint35_radial_2_1684)"/>
<path d="M128.184 0.46875C127.923 2.8125 126.83 10.9896 126.1 17.3438C125.84 19.0104 125.58 21.1458 125.423 22.8125H125.163C125.007 21.1458 124.746 19.0104 124.486 17.2917C123.652 10.9375 122.767 2.91667 122.559 0.46875H117.194C118.444 5.15625 121.777 22.1354 122.767 27.5521C122.767 33.75 122.715 37.7604 122.663 39.5312C123.34 39.4792 124.33 39.4792 125.111 39.4792C125.892 39.4792 126.83 39.4792 127.507 39.5312C127.455 37.7083 127.402 33.75 127.402 27.5C128.392 22.1875 131.621 6.14583 132.923 0.46875H128.184Z" fill="url(#paint36_radial_2_1684)"/>
<path d="M128.184 0.46875C127.923 2.8125 126.83 10.9896 126.1 17.3438C125.84 19.0104 125.58 21.1458 125.423 22.8125H125.163C125.007 21.1458 124.746 19.0104 124.486 17.2917C123.652 10.9375 122.767 2.91667 122.559 0.46875H117.194C118.444 5.15625 121.777 22.1354 122.767 27.5521C122.767 33.75 122.715 37.7604 122.663 39.5312C123.34 39.4792 124.33 39.4792 125.111 39.4792C125.892 39.4792 126.83 39.4792 127.507 39.5312C127.455 37.7083 127.402 33.75 127.402 27.5C128.392 22.1875 131.621 6.14583 132.923 0.46875H128.184Z" fill="url(#paint37_radial_2_1684)"/>
<path d="M128.184 0.46875C127.923 2.8125 126.83 10.9896 126.1 17.3438C125.84 19.0104 125.58 21.1458 125.423 22.8125H125.163C125.007 21.1458 124.746 19.0104 124.486 17.2917C123.652 10.9375 122.767 2.91667 122.559 0.46875H117.194C118.444 5.15625 121.777 22.1354 122.767 27.5521C122.767 33.75 122.715 37.7604 122.663 39.5312C123.34 39.4792 124.33 39.4792 125.111 39.4792C125.892 39.4792 126.83 39.4792 127.507 39.5312C127.455 37.7083 127.402 33.75 127.402 27.5C128.392 22.1875 131.621 6.14583 132.923 0.46875H128.184Z" fill="url(#paint38_radial_2_1684)"/>
<path d="M128.184 0.46875C127.923 2.8125 126.83 10.9896 126.1 17.3438C125.84 19.0104 125.58 21.1458 125.423 22.8125H125.163C125.007 21.1458 124.746 19.0104 124.486 17.2917C123.652 10.9375 122.767 2.91667 122.559 0.46875H117.194C118.444 5.15625 121.777 22.1354 122.767 27.5521C122.767 33.75 122.715 37.7604 122.663 39.5312C123.34 39.4792 124.33 39.4792 125.111 39.4792C125.892 39.4792 126.83 39.4792 127.507 39.5312C127.455 37.7083 127.402 33.75 127.402 27.5C128.392 22.1875 131.621 6.14583 132.923 0.46875H128.184Z" fill="url(#paint39_radial_2_1684)"/>
<defs>
<radialGradient id="paint0_radial_2_1684" cx="0" cy="0" r="1" gradientUnits="userSpaceOnUse" gradientTransform="translate(103.964 7.1875) rotate(138.612) scale(49.6289 80.2413)">
<stop stop-color="#F6F8F9"/>
<stop offset="1" stop-color="#F6F8F9" stop-opacity="0"/>
</radialGradient>
<radialGradient id="paint1_radial_2_1684" cx="0" cy="0" r="1" gradientUnits="userSpaceOnUse" gradientTransform="translate(15.0159 31.25) rotate(9.60352) scale(52.4488 20.2374)">
<stop stop-color="#CFD9DF"/>
<stop offset="1" stop-color="#F6F8F9" stop-opacity="0"/>
</radialGradient>
<radialGradient id="paint2_radial_2_1684" cx="0" cy="0" r="1" gradientUnits="userSpaceOnUse" gradientTransform="translate(4.6731 21.25) rotate(9.73083) scale(77.6536 30.1344)">
<stop stop-color="#2B3033"/>
<stop offset="1" stop-color="#CFD9DF" stop-opacity="0"/>
</radialGradient>
<radialGradient id="paint3_radial_2_1684" cx="0" cy="0" r="1" gradientUnits="userSpaceOnUse" gradientTransform="translate(22.2558 34.0625) rotate(-25.5389) scale(49.2898 42.4458)">
<stop stop-color="#CFD9DF"/>
<stop offset="1" stop-color="#2B3033" stop-opacity="0.64"/>
</radialGradient>
<radialGradient id="paint4_radial_2_1684" cx="0" cy="0" r="1" gradientUnits="userSpaceOnUse" gradientTransform="translate(101.895 4.375) rotate(172.037) scale(112.789 40.5886)">
<stop stop-color="#CFD9DF"/>
<stop offset="1" stop-color="#E1E7EB" stop-opacity="0"/>
</radialGradient>
<radialGradient id="paint5_radial_2_1684" cx="0" cy="0" r="1" gradientUnits="userSpaceOnUse" gradientTransform="translate(103.964 7.1875) rotate(138.612) scale(49.6289 80.2413)">
<stop stop-color="#F6F8F9"/>
<stop offset="1" stop-color="#F6F8F9" stop-opacity="0"/>
</radialGradient>
<radialGradient id="paint6_radial_2_1684" cx="0" cy="0" r="1" gradientUnits="userSpaceOnUse" gradientTransform="translate(15.0159 31.25) rotate(9.60352) scale(52.4488 20.2374)">
<stop stop-color="#CFD9DF"/>
<stop offset="1" stop-color="#F6F8F9" stop-opacity="0"/>
</radialGradient>
<radialGradient id="paint7_radial_2_1684" cx="0" cy="0" r="1" gradientUnits="userSpaceOnUse" gradientTransform="translate(4.6731 21.25) rotate(9.73083) scale(77.6536 30.1344)">
<stop stop-color="#2B3033"/>
<stop offset="1" stop-color="#CFD9DF" stop-opacity="0"/>
</radialGradient>
<radialGradient id="paint8_radial_2_1684" cx="0" cy="0" r="1" gradientUnits="userSpaceOnUse" gradientTransform="translate(22.2558 34.0625) rotate(-25.5389) scale(49.2898 42.4458)">
<stop stop-color="#CFD9DF"/>
<stop offset="1" stop-color="#2B3033" stop-opacity="0.64"/>
</radialGradient>
<radialGradient id="paint9_radial_2_1684" cx="0" cy="0" r="1" gradientUnits="userSpaceOnUse" gradientTransform="translate(101.895 4.375) rotate(172.037) scale(112.789 40.5886)">
<stop stop-color="#CFD9DF"/>
<stop offset="1" stop-color="#E1E7EB" stop-opacity="0"/>
</radialGradient>
<radialGradient id="paint10_radial_2_1684" cx="0" cy="0" r="1" gradientUnits="userSpaceOnUse" gradientTransform="translate(103.964 7.1875) rotate(138.612) scale(49.6289 80.2413)">
<stop stop-color="#F6F8F9"/>
<stop offset="1" stop-color="#F6F8F9" stop-opacity="0"/>
</radialGradient>
<radialGradient id="paint11_radial_2_1684" cx="0" cy="0" r="1" gradientUnits="userSpaceOnUse" gradientTransform="translate(15.0159 31.25) rotate(9.60352) scale(52.4488 20.2374)">
<stop stop-color="#CFD9DF"/>
<stop offset="1" stop-color="#F6F8F9" stop-opacity="0"/>
</radialGradient>
<radialGradient id="paint12_radial_2_1684" cx="0" cy="0" r="1" gradientUnits="userSpaceOnUse" gradientTransform="translate(4.6731 21.25) rotate(9.73083) scale(77.6536 30.1344)">
<stop stop-color="#2B3033"/>
<stop offset="1" stop-color="#CFD9DF" stop-opacity="0"/>
</radialGradient>
<radialGradient id="paint13_radial_2_1684" cx="0" cy="0" r="1" gradientUnits="userSpaceOnUse" gradientTransform="translate(22.2558 34.0625) rotate(-25.5389) scale(49.2898 42.4458)">
<stop stop-color="#CFD9DF"/>
<stop offset="1" stop-color="#2B3033" stop-opacity="0.64"/>
</radialGradient>
<radialGradient id="paint14_radial_2_1684" cx="0" cy="0" r="1" gradientUnits="userSpaceOnUse" gradientTransform="translate(101.895 4.375) rotate(172.037) scale(112.789 40.5886)">
<stop stop-color="#CFD9DF"/>
<stop offset="1" stop-color="#E1E7EB" stop-opacity="0"/>
</radialGradient>
<radialGradient id="paint15_radial_2_1684" cx="0" cy="0" r="1" gradientUnits="userSpaceOnUse" gradientTransform="translate(103.964 7.1875) rotate(138.612) scale(49.6289 80.2413)">
<stop stop-color="#F6F8F9"/>
<stop offset="1" stop-color="#F6F8F9" stop-opacity="0"/>
</radialGradient>
<radialGradient id="paint16_radial_2_1684" cx="0" cy="0" r="1" gradientUnits="userSpaceOnUse" gradientTransform="translate(15.0159 31.25) rotate(9.60352) scale(52.4488 20.2374)">
<stop stop-color="#CFD9DF"/>
<stop offset="1" stop-color="#F6F8F9" stop-opacity="0"/>
</radialGradient>
<radialGradient id="paint17_radial_2_1684" cx="0" cy="0" r="1" gradientUnits="userSpaceOnUse" gradientTransform="translate(4.6731 21.25) rotate(9.73083) scale(77.6536 30.1344)">
<stop stop-color="#2B3033"/>
<stop offset="1" stop-color="#CFD9DF" stop-opacity="0"/>
</radialGradient>
<radialGradient id="paint18_radial_2_1684" cx="0" cy="0" r="1" gradientUnits="userSpaceOnUse" gradientTransform="translate(22.2558 34.0625) rotate(-25.5389) scale(49.2898 42.4458)">
<stop stop-color="#CFD9DF"/>
<stop offset="1" stop-color="#2B3033" stop-opacity="0.64"/>
</radialGradient>
<radialGradient id="paint19_radial_2_1684" cx="0" cy="0" r="1" gradientUnits="userSpaceOnUse" gradientTransform="translate(101.895 4.375) rotate(172.037) scale(112.789 40.5886)">
<stop stop-color="#CFD9DF"/>
<stop offset="1" stop-color="#E1E7EB" stop-opacity="0"/>
</radialGradient>
<radialGradient id="paint20_radial_2_1684" cx="0" cy="0" r="1" gradientUnits="userSpaceOnUse" gradientTransform="translate(103.964 7.1875) rotate(138.612) scale(49.6289 80.2413)">
<stop stop-color="#F6F8F9"/>
<stop offset="1" stop-color="#F6F8F9" stop-opacity="0"/>
</radialGradient>
<radialGradient id="paint21_radial_2_1684" cx="0" cy="0" r="1" gradientUnits="userSpaceOnUse" gradientTransform="translate(15.0159 31.25) rotate(9.60352) scale(52.4488 20.2374)">
<stop stop-color="#CFD9DF"/>
<stop offset="1" stop-color="#F6F8F9" stop-opacity="0"/>
</radialGradient>
<radialGradient id="paint22_radial_2_1684" cx="0" cy="0" r="1" gradientUnits="userSpaceOnUse" gradientTransform="translate(4.6731 21.25) rotate(9.73083) scale(77.6536 30.1344)">
<stop stop-color="#2B3033"/>
<stop offset="1" stop-color="#CFD9DF" stop-opacity="0"/>
</radialGradient>
<radialGradient id="paint23_radial_2_1684" cx="0" cy="0" r="1" gradientUnits="userSpaceOnUse" gradientTransform="translate(22.2558 34.0625) rotate(-25.5389) scale(49.2898 42.4458)">
<stop stop-color="#CFD9DF"/>
<stop offset="1" stop-color="#2B3033" stop-opacity="0.64"/>
</radialGradient>
<radialGradient id="paint24_radial_2_1684" cx="0" cy="0" r="1" gradientUnits="userSpaceOnUse" gradientTransform="translate(101.895 4.375) rotate(172.037) scale(112.789 40.5886)">
<stop stop-color="#CFD9DF"/>
<stop offset="1" stop-color="#E1E7EB" stop-opacity="0"/>
</radialGradient>
<radialGradient id="paint25_radial_2_1684" cx="0" cy="0" r="1" gradientUnits="userSpaceOnUse" gradientTransform="translate(103.964 7.1875) rotate(138.612) scale(49.6289 80.2413)">
<stop stop-color="#F6F8F9"/>
<stop offset="1" stop-color="#F6F8F9" stop-opacity="0"/>
</radialGradient>
<radialGradient id="paint26_radial_2_1684" cx="0" cy="0" r="1" gradientUnits="userSpaceOnUse" gradientTransform="translate(15.0159 31.25) rotate(9.60352) scale(52.4488 20.2374)">
<stop stop-color="#CFD9DF"/>
<stop offset="1" stop-color="#F6F8F9" stop-opacity="0"/>
</radialGradient>
<radialGradient id="paint27_radial_2_1684" cx="0" cy="0" r="1" gradientUnits="userSpaceOnUse" gradientTransform="translate(4.6731 21.25) rotate(9.73083) scale(77.6536 30.1344)">
<stop stop-color="#2B3033"/>
<stop offset="1" stop-color="#CFD9DF" stop-opacity="0"/>
</radialGradient>
<radialGradient id="paint28_radial_2_1684" cx="0" cy="0" r="1" gradientUnits="userSpaceOnUse" gradientTransform="translate(22.2558 34.0625) rotate(-25.5389) scale(49.2898 42.4458)">
<stop stop-color="#CFD9DF"/>
<stop offset="1" stop-color="#2B3033" stop-opacity="0.64"/>
</radialGradient>
<radialGradient id="paint29_radial_2_1684" cx="0" cy="0" r="1" gradientUnits="userSpaceOnUse" gradientTransform="translate(101.895 4.375) rotate(172.037) scale(112.789 40.5886)">
<stop stop-color="#CFD9DF"/>
<stop offset="1" stop-color="#E1E7EB" stop-opacity="0"/>
</radialGradient>
<radialGradient id="paint30_radial_2_1684" cx="0" cy="0" r="1" gradientUnits="userSpaceOnUse" gradientTransform="translate(103.964 7.1875) rotate(138.612) scale(49.6289 80.2413)">
<stop stop-color="#F6F8F9"/>
<stop offset="1" stop-color="#F6F8F9" stop-opacity="0"/>
</radialGradient>
<radialGradient id="paint31_radial_2_1684" cx="0" cy="0" r="1" gradientUnits="userSpaceOnUse" gradientTransform="translate(15.0159 31.25) rotate(9.60352) scale(52.4488 20.2374)">
<stop stop-color="#CFD9DF"/>
<stop offset="1" stop-color="#F6F8F9" stop-opacity="0"/>
</radialGradient>
<radialGradient id="paint32_radial_2_1684" cx="0" cy="0" r="1" gradientUnits="userSpaceOnUse" gradientTransform="translate(4.6731 21.25) rotate(9.73083) scale(77.6536 30.1344)">
<stop stop-color="#2B3033"/>
<stop offset="1" stop-color="#CFD9DF" stop-opacity="0"/>
</radialGradient>
<radialGradient id="paint33_radial_2_1684" cx="0" cy="0" r="1" gradientUnits="userSpaceOnUse" gradientTransform="translate(22.2558 34.0625) rotate(-25.5389) scale(49.2898 42.4458)">
<stop stop-color="#CFD9DF"/>
<stop offset="1" stop-color="#2B3033" stop-opacity="0.64"/>
</radialGradient>
<radialGradient id="paint34_radial_2_1684" cx="0" cy="0" r="1" gradientUnits="userSpaceOnUse" gradientTransform="translate(101.895 4.375) rotate(172.037) scale(112.789 40.5886)">
<stop stop-color="#CFD9DF"/>
<stop offset="1" stop-color="#E1E7EB" stop-opacity="0"/>
</radialGradient>
<radialGradient id="paint35_radial_2_1684" cx="0" cy="0" r="1" gradientUnits="userSpaceOnUse" gradientTransform="translate(103.964 7.1875) rotate(138.612) scale(49.6289 80.2413)">
<stop stop-color="#F6F8F9"/>
<stop offset="1" stop-color="#F6F8F9" stop-opacity="0"/>
</radialGradient>
<radialGradient id="paint36_radial_2_1684" cx="0" cy="0" r="1" gradientUnits="userSpaceOnUse" gradientTransform="translate(15.0159 31.25) rotate(9.60352) scale(52.4488 20.2374)">
<stop stop-color="#CFD9DF"/>
<stop offset="1" stop-color="#F6F8F9" stop-opacity="0"/>
</radialGradient>
<radialGradient id="paint37_radial_2_1684" cx="0" cy="0" r="1" gradientUnits="userSpaceOnUse" gradientTransform="translate(4.6731 21.25) rotate(9.73083) scale(77.6536 30.1344)">
<stop stop-color="#2B3033"/>
<stop offset="1" stop-color="#CFD9DF" stop-opacity="0"/>
</radialGradient>
<radialGradient id="paint38_radial_2_1684" cx="0" cy="0" r="1" gradientUnits="userSpaceOnUse" gradientTransform="translate(22.2558 34.0625) rotate(-25.5389) scale(49.2898 42.4458)">
<stop stop-color="#CFD9DF"/>
<stop offset="1" stop-color="#2B3033" stop-opacity="0.64"/>
</radialGradient>
<radialGradient id="paint39_radial_2_1684" cx="0" cy="0" r="1" gradientUnits="userSpaceOnUse" gradientTransform="translate(101.895 4.375) rotate(172.037) scale(112.789 40.5886)">
<stop stop-color="#CFD9DF"/>
<stop offset="1" stop-color="#E1E7EB" stop-opacity="0"/>
</radialGradient>
</defs>
</svg>
